<?xml version="1.0" encoding="UTF-8"?>
<!-- Generated by Pixelmator Pro 3.5.7 -->
<svg width="31" height="32" viewBox="0 0 31 32" xmlns="http://www.w3.org/2000/svg">
    <linearGradient id="linearGradient1" x1="-0.261632" y1="5.682477" x2="18.374029" y2="25.78282" gradientUnits="userSpaceOnUse">
        <stop offset="1e-05" stop-color="#41d1ff" stop-opacity="1"/>
        <stop offset="1" stop-color="#bd34fe" stop-opacity="1"/>
    </linearGradient>
    <path id="Path" fill="url(#linearGradient1)" stroke="none" visibility="hidden" d="M 31.77228 4.723797 L 16.798771 31.498957 C 16.489603 32.051796 15.695332 32.055035 15.381557 31.504934 L 0.111206 4.726288 C -0.230708 4.126879 0.281914 3.400717 0.961261 3.522242 L 15.950833 6.201401 C 16.046465 6.218491 16.144381 6.218321 16.239952 6.200903 L 30.916 3.525976 C 31.593105 3.402584 32.108093 4.123144 31.77228 4.723797 Z"/>
    <linearGradient id="linearGradient2" x1="17.340063" y1="0.597387" x2="18.354437" y2="23.7228" gradientUnits="userSpaceOnUse">
        <stop offset="1e-05" stop-color="#ffea83" stop-opacity="1"/>
        <stop offset="0.08333" stop-color="#ffdd35" stop-opacity="1"/>
        <stop offset="1" stop-color="#ffa800" stop-opacity="1"/>
    </linearGradient>
    <path id="path1" fill="url(#linearGradient2)" stroke="none" d="M 23.091066 0.007845 L 12.01035 2.179113 C 11.828243 2.21479 11.693343 2.369152 11.682382 2.554398 L 11.000793 14.066427 C 10.993195 14.194443 11.046387 14.31855 11.144333 14.401329 C 11.242279 14.484106 11.373518 14.515867 11.498475 14.487036 L 14.583549 13.775066 C 14.872171 13.708452 15.133027 13.962708 15.073634 14.252949 L 14.157089 18.741293 C 14.095455 19.043362 14.378972 19.301605 14.673945 19.211954 L 16.579502 18.633091 C 16.874847 18.54344 17.158739 18.802429 17.096233 19.104748 L 15.639673 26.154833 C 15.54853 26.595861 16.135113 26.836296 16.379658 26.458271 L 16.543142 26.205757 L 25.572374 8.186148 C 25.723658 7.884451 25.462801 7.540421 25.131596 7.60442 L 21.955875 8.217278 C 21.657541 8.274801 21.403658 7.996887 21.487829 7.705027 L 23.560482 0.519968 C 23.644777 0.227362 23.389898 -0.050678 23.09119 0.007845 Z"/>
</svg>
